<svg width="270" height="78.9" viewBox="0 0 270 78.9" xmlns="http://www.w3.org/2000/svg"><g id="svgGroup" stroke-linecap="round" fill-rule="evenodd" font-size="9pt" stroke="#000" stroke-width="0.25mm" fill="#000" style="stroke:#000;stroke-width:0.25mm;fill:#000"><path d="M 126.7 78.9 L 127.7 78.9 Q 131.3 78.7 136.55 77.75 Q 141.8 76.8 147.4 74.85 Q 153 72.9 157.9 69.75 Q 162.8 66.6 165.85 62.05 Q 168.9 57.5 168.9 51.2 Q 168.9 45.6 165.9 42.05 Q 162.9 38.5 158.25 36.8 Q 153.6 35.1 148.5 35.1 Q 147.1 35.1 144.2 35.5 Q 141.3 35.9 137.6 37 Q 133.9 38.1 129.85 40.15 Q 125.8 42.2 122.2 45.5 Q 124.9 42.3 128.2 38 Q 131.5 33.7 134.9 29.15 Q 138.3 24.6 141.3 20.5 Q 144.3 16.4 146.45 13.5 Q 148.6 10.6 149.4 9.8 Q 150.4 8.7 150.4 7.8 Q 150.4 7 149.3 6 Q 148.2 5 146.8 5 Q 146 5 144.8 5.6 Q 144.4 5.7 142.05 6.35 Q 139.7 7 136.35 7.85 Q 133 8.7 129.5 9.5 Q 126 10.3 123.15 10.85 Q 120.3 11.4 119.1 11.4 Q 118 11.4 117.4 11.2 Q 116.8 11 116.4 11 Q 116.2 11 115.85 11.3 Q 115.5 11.6 115.5 12.1 Q 115.5 12.4 116.15 13.35 Q 116.8 14.3 117.85 15.15 Q 118.9 16 120.2 16 Q 120.9 16 123.05 15.55 Q 125.2 15.1 128.1 14.4 Q 131 13.7 133.95 12.9 Q 136.9 12.1 139.3 11.45 Q 141.7 10.8 142.7 10.5 Q 133.9 23.1 128 31.1 Q 122.1 39.1 118.4 43.75 Q 114.7 48.4 112.65 50.7 Q 110.6 53 109.4 54.1 Q 108.6 54.9 108.6 56.3 Q 108.6 56.7 108.65 57.1 Q 108.7 57.5 108.8 57.9 Q 109.2 59.4 111 59.4 Q 112.4 59.4 113.1 58.5 Q 114.3 57 117.2 53.85 Q 120.1 50.7 124.55 47.35 Q 129 44 134.7 41.65 Q 140.4 39.3 147.2 39.3 Q 151.4 39.3 155.1 40.5 Q 158.8 41.7 161.15 44.25 Q 163.5 46.8 163.5 50.9 Q 163.5 56.3 160.6 60.3 Q 157.7 64.3 153.2 67.15 Q 148.7 70 143.7 71.85 Q 138.7 73.7 134.3 74.75 Q 129.9 75.8 127.4 76.2 Q 125.8 76.4 125 76.9 Q 124.2 77.4 124.2 77.9 Q 124.2 78.9 126.7 78.9 Z M 245.4 16.9 L 245.4 16.6 Q 245.3 15.7 244.25 15.1 Q 243.2 14.5 241.9 14.5 Q 241.5 14.5 241.2 14.55 Q 240.9 14.6 240.5 14.7 L 239.2 15.3 Q 238.2 15.9 234.75 16.75 Q 231.3 17.6 226.5 18.6 Q 227.9 12.3 228.6 7.85 Q 229.3 3.4 229.3 3.2 Q 229.3 1.9 228.25 1.25 Q 227.2 0.6 226.05 0.3 Q 224.9 0 224.4 0 Q 223.6 0 223.3 0.4 Q 223.1 0.8 223.1 1 Q 223.1 1.4 223.3 1.8 L 223.6 2.4 Q 224.1 3.4 224.1 3.9 Q 224.1 4.7 223.75 6.9 Q 223.4 9.1 222.95 11.7 Q 222.5 14.3 222.1 16.5 Q 221.7 18.7 221.5 19.6 Q 217.8 20.3 213.9 20.95 Q 210 21.6 206.4 22.1 L 205.5 22.1 L 204.65 22.1 Q 204.2 22.1 203.7 22 Q 203.3 21.9 202.85 21.8 Q 202.4 21.7 202 21.7 Q 201.5 21.7 201.2 21.9 Q 200.9 22.2 200.9 22.5 Q 200.9 23.1 201.45 23.8 Q 202 24.5 202.4 24.8 Q 203.9 26.3 205.1 26.4 Q 205.7 26.4 208.05 26.05 Q 210.4 25.7 213.75 25.15 Q 217.1 24.6 220.6 23.9 Q 219.2 30.3 217.45 37.3 Q 215.7 44.3 213.75 50.75 Q 211.8 57.2 209.8 62.35 Q 207.8 67.5 205.9 70.2 Q 204.8 72.1 204.8 73.8 Q 204.8 75.3 205.45 76.35 Q 206.1 77.4 207.1 77.4 Q 207.9 77.4 208.65 76.7 Q 209.4 76 210.1 74.4 Q 213.2 67.6 216 58.8 Q 218.8 50 221.25 40.65 Q 223.7 31.3 225.5 23 Q 232.2 21.6 236.2 20.75 Q 240.2 19.9 242.15 19.3 Q 244.1 18.7 244.75 18.15 Q 245.4 17.6 245.4 16.9 Z M 32.8 36.8 Q 32.3 35.9 31.65 35.55 Q 31 35.2 30.5 35.2 Q 28.9 35.2 28.9 36.9 Q 28.9 37.4 29.2 38 Q 30.1 40.2 32.85 43 Q 35.6 45.8 38.75 49 Q 41.9 52.2 44.15 55.8 Q 46.4 59.4 46.4 63.3 Q 46.4 66.7 44.15 68.95 Q 41.9 71.2 39 71.2 Q 36.5 71.2 33.3 70.6 Q 30.1 70 27.4 69.15 Q 24.7 68.3 23.5 67.6 Q 23 67.2 22.4 67.2 Q 21.7 67.2 21.3 67.65 Q 20.9 68.1 20.9 68.6 Q 20.9 69.4 21.7 70 Q 23.7 71.2 26.7 72.6 Q 29.7 74 33.15 75 Q 36.6 76 39.8 76 Q 42.6 76 45.3 74.6 Q 48 73.2 49.8 70.35 Q 51.6 67.5 51.6 63.2 Q 51.6 59.6 49.95 56.25 Q 48.3 52.9 45.8 49.9 Q 43.3 46.9 40.6 44.4 Q 37.9 41.9 35.75 39.95 Q 33.6 38 32.8 36.8 Z M 265.3 75.9 L 266.5 75.9 Q 268.5 75.7 269.25 75.2 Q 270 74.7 270 74 Q 270 72.8 268.8 71.65 Q 267.6 70.5 267.1 70.4 Q 266.8 70.3 266.2 70.3 Q 265.8 70.3 265.35 70.35 Q 264.9 70.4 264.5 70.4 L 264.3 70.4 Q 262.8 70.4 259.35 69.85 Q 255.9 69.3 251.8 68.15 Q 247.7 67 244.1 65.1 Q 240.5 63.2 238.7 60.5 Q 237.9 59.2 237 59.2 Q 236.7 59.2 236.5 59.3 Q 236 59.6 236 60.5 Q 236 63.3 238.8 66 Q 241.6 68.7 246.05 70.95 Q 250.5 73.2 255.6 74.55 Q 260.7 75.9 265.3 75.9 Z M 47.1 21.5 Q 45.6 22.8 43.55 23.95 Q 41.5 25.1 40.4 25.9 Q 39 26.7 39 27.5 Q 39 28.4 40.4 28.4 Q 41.3 28.4 43.15 27.9 Q 45 27.4 47 26.65 Q 49 25.9 50.6 25.2 Q 52.2 24.5 52.5 24.1 Q 52.8 23.8 53.15 23.15 Q 53.5 22.5 53.5 21.8 Q 53.5 20.8 52.05 18.85 Q 50.6 16.9 48.3 14.6 Q 46 12.3 43.6 10.15 Q 41.2 8 39.2 6.65 Q 37.2 5.3 36.4 5.3 Q 35.5 5.3 34.9 5.9 Q 34.3 6.5 34.3 7.2 Q 34.3 8 35.1 8.6 Q 37.3 10 39.7 12.3 Q 42.1 14.6 44.15 17.05 Q 46.2 19.5 47.1 21.5 Z M 0 58.6 L 0 58.9 Q 0.1 60.4 1.2 63.25 Q 2.3 66.1 4 69.1 Q 5.7 72.1 7.6 74.2 Q 9.5 76.3 11.2 76.3 Q 12.4 76.3 13.7 74.7 Q 17.2 70.2 19.05 66.95 Q 20.9 63.7 20.9 63.3 Q 20.9 62.7 20.4 62.4 Q 19.9 62.1 19.4 62.1 Q 18.5 62.1 18.2 62.6 Q 16.8 64.5 14.95 66.3 Q 13.1 68.1 11.5 69.8 Q 9.6 68.3 7.9 66.15 Q 6.2 64 5.05 61.8 Q 3.9 59.6 3.3 58.1 Q 2.7 56.4 1.4 56.4 Q 0.9 56.4 0.45 56.95 Q 0 57.5 0 58.6 Z M 265.7 33.8 L 267.8 33.8 Q 269 33.8 269.4 33.05 Q 269.8 32.3 269.8 31.5 Q 269.8 31.2 269.75 30.9 Q 269.7 30.6 269.7 30.4 Q 269.5 29.3 268.7 28.95 Q 267.9 28.6 267.1 28.5 L 266.7 28.5 Q 265.6 28.5 262.45 28.75 Q 259.3 29 255.4 29.5 Q 251.5 30 247.8 30.7 Q 244.1 31.4 241.65 32.25 Q 239.2 33.1 239.2 34.2 Q 239.2 34.8 239.95 35.15 Q 240.7 35.5 241.7 35.5 Q 241.9 35.5 242.1 35.45 Q 242.3 35.4 242.5 35.4 Q 245.6 34.9 249.9 34.55 Q 254.2 34.2 258.45 34 Q 262.7 33.8 265.7 33.8 Z M 78 67.7 Q 78.5 67.5 78.9 66.75 Q 79.3 66 79.3 65.2 Q 79.3 64.7 79.2 64.5 Q 78.7 62.5 76.8 59.6 Q 74.9 56.7 72.5 53.8 Q 70.1 50.9 67.95 48.95 Q 65.8 47 64.8 47 Q 63.9 47 62.95 47.6 Q 62 48.2 62 49.1 Q 62 49.9 62.8 50.4 Q 65.2 52.2 67.55 55.3 Q 69.9 58.4 71.75 61.6 Q 73.6 64.8 74.3 67.1 Q 74.5 67.8 75 68.1 Q 75.5 68.4 75.9 68.4 Q 76.5 68.4 77.05 68.15 Q 77.6 67.9 78 67.7 Z" vector-effect="non-scaling-stroke"/></g></svg>